<mxfile host="app.diagrams.net" agent="Mozilla/5.0 (Windows NT 10.0; Win64; x64) AppleWebKit/537.36 (KHTML, like Gecko) Chrome/127.0.0.0 Safari/537.36" version="24.7.7">
  <diagram name="PÃ¡gina-1" id="9_MLxDljh9_GYBhuz-ik">
    <mxGraphModel dx="611" dy="503" grid="1" gridSize="10" guides="1" tooltips="1" connect="1" arrows="1" fold="1" page="1" pageScale="1" pageWidth="827" pageHeight="1169" math="0" shadow="0">
      <root>
        <mxCell id="0" />
        <mxCell id="1" parent="0" />
        <mxCell id="Kps_Bdfrbykp4vlgLDEr-1" value="Clientes" style="rounded=0;whiteSpace=wrap;html=1;fillColor=#f8cecc;strokeColor=#b85450;" vertex="1" parent="1">
          <mxGeometry x="200" y="240" width="80" height="50" as="geometry" />
        </mxCell>
        <mxCell id="Kps_Bdfrbykp4vlgLDEr-3" value="nombre" style="ellipse;whiteSpace=wrap;html=1;" vertex="1" parent="1">
          <mxGeometry x="70" y="150" width="60" height="40" as="geometry" />
        </mxCell>
        <mxCell id="Kps_Bdfrbykp4vlgLDEr-4" value="apellidos" style="ellipse;whiteSpace=wrap;html=1;" vertex="1" parent="1">
          <mxGeometry x="147.5" y="130" width="60" height="40" as="geometry" />
        </mxCell>
        <mxCell id="Kps_Bdfrbykp4vlgLDEr-5" value="&lt;u&gt;dni&lt;/u&gt;" style="ellipse;whiteSpace=wrap;html=1;" vertex="1" parent="1">
          <mxGeometry x="220" y="110" width="60" height="40" as="geometry" />
        </mxCell>
        <mxCell id="Kps_Bdfrbykp4vlgLDEr-6" value="direccion" style="ellipse;whiteSpace=wrap;html=1;" vertex="1" parent="1">
          <mxGeometry x="290" y="130" width="60" height="40" as="geometry" />
        </mxCell>
        <mxCell id="Kps_Bdfrbykp4vlgLDEr-7" value="fechaNac" style="ellipse;whiteSpace=wrap;html=1;" vertex="1" parent="1">
          <mxGeometry x="370" y="150" width="60" height="40" as="geometry" />
        </mxCell>
        <mxCell id="Kps_Bdfrbykp4vlgLDEr-10" value="" style="endArrow=none;html=1;rounded=0;entryX=0;entryY=0;entryDx=0;entryDy=0;exitX=0.5;exitY=1;exitDx=0;exitDy=0;" edge="1" parent="1" source="Kps_Bdfrbykp4vlgLDEr-3" target="Kps_Bdfrbykp4vlgLDEr-1">
          <mxGeometry width="50" height="50" relative="1" as="geometry">
            <mxPoint x="80" y="180" as="sourcePoint" />
            <mxPoint x="230" y="250" as="targetPoint" />
          </mxGeometry>
        </mxCell>
        <mxCell id="Kps_Bdfrbykp4vlgLDEr-11" value="" style="endArrow=none;html=1;rounded=0;entryX=0.413;entryY=-0.04;entryDx=0;entryDy=0;exitX=0.5;exitY=1;exitDx=0;exitDy=0;entryPerimeter=0;" edge="1" parent="1" source="Kps_Bdfrbykp4vlgLDEr-4" target="Kps_Bdfrbykp4vlgLDEr-1">
          <mxGeometry width="50" height="50" relative="1" as="geometry">
            <mxPoint x="150" y="180" as="sourcePoint" />
            <mxPoint x="250" y="250" as="targetPoint" />
          </mxGeometry>
        </mxCell>
        <mxCell id="Kps_Bdfrbykp4vlgLDEr-12" value="" style="endArrow=none;html=1;rounded=0;exitX=0.5;exitY=1;exitDx=0;exitDy=0;entryX=0.638;entryY=0.02;entryDx=0;entryDy=0;entryPerimeter=0;" edge="1" parent="1" source="Kps_Bdfrbykp4vlgLDEr-5" target="Kps_Bdfrbykp4vlgLDEr-1">
          <mxGeometry width="50" height="50" relative="1" as="geometry">
            <mxPoint x="231" y="190" as="sourcePoint" />
            <mxPoint x="271" y="230" as="targetPoint" />
          </mxGeometry>
        </mxCell>
        <mxCell id="Kps_Bdfrbykp4vlgLDEr-13" value="" style="endArrow=none;html=1;rounded=0;exitX=0.5;exitY=1;exitDx=0;exitDy=0;entryX=0.75;entryY=0;entryDx=0;entryDy=0;" edge="1" parent="1" source="Kps_Bdfrbykp4vlgLDEr-6" target="Kps_Bdfrbykp4vlgLDEr-1">
          <mxGeometry width="50" height="50" relative="1" as="geometry">
            <mxPoint x="301" y="190" as="sourcePoint" />
            <mxPoint x="270" y="230" as="targetPoint" />
          </mxGeometry>
        </mxCell>
        <mxCell id="Kps_Bdfrbykp4vlgLDEr-14" value="" style="endArrow=none;html=1;rounded=0;entryX=1;entryY=0;entryDx=0;entryDy=0;exitX=0.5;exitY=1;exitDx=0;exitDy=0;" edge="1" parent="1" source="Kps_Bdfrbykp4vlgLDEr-7" target="Kps_Bdfrbykp4vlgLDEr-1">
          <mxGeometry width="50" height="50" relative="1" as="geometry">
            <mxPoint x="371" y="190" as="sourcePoint" />
            <mxPoint x="414" y="258" as="targetPoint" />
          </mxGeometry>
        </mxCell>
        <mxCell id="Kps_Bdfrbykp4vlgLDEr-17" value="Productos" style="rounded=0;whiteSpace=wrap;html=1;fillColor=#f8cecc;strokeColor=#b85450;" vertex="1" parent="1">
          <mxGeometry x="200" y="430" width="80" height="50" as="geometry" />
        </mxCell>
        <mxCell id="Kps_Bdfrbykp4vlgLDEr-30" value="Proveedores" style="rounded=0;whiteSpace=wrap;html=1;fillColor=#f8cecc;strokeColor=#b85450;" vertex="1" parent="1">
          <mxGeometry x="530" y="430" width="80" height="50" as="geometry" />
        </mxCell>
        <mxCell id="Kps_Bdfrbykp4vlgLDEr-31" value="&lt;u&gt;IdProveedor&lt;/u&gt;" style="ellipse;whiteSpace=wrap;html=1;" vertex="1" parent="1">
          <mxGeometry x="460" y="530" width="60" height="40" as="geometry" />
        </mxCell>
        <mxCell id="Kps_Bdfrbykp4vlgLDEr-32" value="Direccion" style="ellipse;whiteSpace=wrap;html=1;" vertex="1" parent="1">
          <mxGeometry x="600" y="530" width="60" height="40" as="geometry" />
        </mxCell>
        <mxCell id="Kps_Bdfrbykp4vlgLDEr-33" value="Nombre" style="ellipse;whiteSpace=wrap;html=1;" vertex="1" parent="1">
          <mxGeometry x="530" y="530" width="60" height="40" as="geometry" />
        </mxCell>
        <mxCell id="Kps_Bdfrbykp4vlgLDEr-34" value="" style="endArrow=none;html=1;rounded=0;exitX=0.5;exitY=0;exitDx=0;exitDy=0;entryX=0;entryY=1;entryDx=0;entryDy=0;" edge="1" parent="1" source="Kps_Bdfrbykp4vlgLDEr-31" target="Kps_Bdfrbykp4vlgLDEr-30">
          <mxGeometry width="50" height="50" relative="1" as="geometry">
            <mxPoint x="490" y="460" as="sourcePoint" />
            <mxPoint x="540" y="410" as="targetPoint" />
          </mxGeometry>
        </mxCell>
        <mxCell id="Kps_Bdfrbykp4vlgLDEr-35" value="" style="endArrow=none;html=1;rounded=0;entryX=0.5;entryY=1;entryDx=0;entryDy=0;exitX=0.5;exitY=0;exitDx=0;exitDy=0;" edge="1" parent="1" source="Kps_Bdfrbykp4vlgLDEr-33" target="Kps_Bdfrbykp4vlgLDEr-30">
          <mxGeometry width="50" height="50" relative="1" as="geometry">
            <mxPoint x="480" y="480" as="sourcePoint" />
            <mxPoint x="530" y="430" as="targetPoint" />
          </mxGeometry>
        </mxCell>
        <mxCell id="Kps_Bdfrbykp4vlgLDEr-36" value="" style="endArrow=none;html=1;rounded=0;entryX=0.75;entryY=1;entryDx=0;entryDy=0;exitX=0.5;exitY=0;exitDx=0;exitDy=0;" edge="1" parent="1" source="Kps_Bdfrbykp4vlgLDEr-32" target="Kps_Bdfrbykp4vlgLDEr-30">
          <mxGeometry width="50" height="50" relative="1" as="geometry">
            <mxPoint x="540" y="480" as="sourcePoint" />
            <mxPoint x="550" y="430" as="targetPoint" />
          </mxGeometry>
        </mxCell>
        <mxCell id="Kps_Bdfrbykp4vlgLDEr-38" value="" style="endArrow=none;html=1;rounded=0;entryX=1;entryY=0.5;entryDx=0;entryDy=0;exitX=0;exitY=0.5;exitDx=0;exitDy=0;" edge="1" parent="1" source="Kps_Bdfrbykp4vlgLDEr-49" target="Kps_Bdfrbykp4vlgLDEr-17">
          <mxGeometry width="50" height="50" relative="1" as="geometry">
            <mxPoint x="400" y="455" as="sourcePoint" />
            <mxPoint x="440" y="350" as="targetPoint" />
          </mxGeometry>
        </mxCell>
        <mxCell id="Kps_Bdfrbykp4vlgLDEr-41" value="IdProduc" style="ellipse;whiteSpace=wrap;html=1;" vertex="1" parent="1">
          <mxGeometry x="147.5" y="520" width="60" height="40" as="geometry" />
        </mxCell>
        <mxCell id="Kps_Bdfrbykp4vlgLDEr-42" value="Nombre" style="ellipse;whiteSpace=wrap;html=1;" vertex="1" parent="1">
          <mxGeometry x="212.5" y="520" width="60" height="40" as="geometry" />
        </mxCell>
        <mxCell id="Kps_Bdfrbykp4vlgLDEr-43" value="" style="endArrow=none;html=1;rounded=0;entryX=0;entryY=1;entryDx=0;entryDy=0;exitX=0.5;exitY=0;exitDx=0;exitDy=0;" edge="1" parent="1" source="Kps_Bdfrbykp4vlgLDEr-41" target="Kps_Bdfrbykp4vlgLDEr-17">
          <mxGeometry width="50" height="50" relative="1" as="geometry">
            <mxPoint x="390" y="400" as="sourcePoint" />
            <mxPoint x="440" y="350" as="targetPoint" />
          </mxGeometry>
        </mxCell>
        <mxCell id="Kps_Bdfrbykp4vlgLDEr-44" value="" style="endArrow=none;html=1;rounded=0;exitX=0.5;exitY=0;exitDx=0;exitDy=0;entryX=0.5;entryY=1;entryDx=0;entryDy=0;" edge="1" parent="1" source="Kps_Bdfrbykp4vlgLDEr-42" target="Kps_Bdfrbykp4vlgLDEr-17">
          <mxGeometry width="50" height="50" relative="1" as="geometry">
            <mxPoint x="215" y="460" as="sourcePoint" />
            <mxPoint x="250" y="410" as="targetPoint" />
          </mxGeometry>
        </mxCell>
        <mxCell id="Kps_Bdfrbykp4vlgLDEr-45" value="" style="endArrow=none;html=1;rounded=0;exitX=0.5;exitY=0;exitDx=0;exitDy=0;" edge="1" parent="1" source="Kps_Bdfrbykp4vlgLDEr-17">
          <mxGeometry width="50" height="50" relative="1" as="geometry">
            <mxPoint x="390" y="400" as="sourcePoint" />
            <mxPoint x="240" y="390" as="targetPoint" />
          </mxGeometry>
        </mxCell>
        <mxCell id="Kps_Bdfrbykp4vlgLDEr-46" value="&lt;font style=&quot;font-size: 10px;&quot;&gt;COMPRA&lt;/font&gt;" style="rhombus;whiteSpace=wrap;html=1;fillColor=#ffe6cc;strokeColor=#d79b00;" vertex="1" parent="1">
          <mxGeometry x="207.5" y="340" width="65" height="50" as="geometry" />
        </mxCell>
        <mxCell id="Kps_Bdfrbykp4vlgLDEr-47" value="" style="endArrow=none;html=1;rounded=0;entryX=0.5;entryY=1;entryDx=0;entryDy=0;exitX=0.5;exitY=0;exitDx=0;exitDy=0;" edge="1" parent="1" source="Kps_Bdfrbykp4vlgLDEr-46" target="Kps_Bdfrbykp4vlgLDEr-1">
          <mxGeometry width="50" height="50" relative="1" as="geometry">
            <mxPoint x="350" y="310" as="sourcePoint" />
            <mxPoint x="400" y="260" as="targetPoint" />
          </mxGeometry>
        </mxCell>
        <mxCell id="Kps_Bdfrbykp4vlgLDEr-48" value="Text" style="text;html=1;align=center;verticalAlign=middle;resizable=0;points=[];autosize=1;strokeColor=none;fillColor=none;" vertex="1" parent="1">
          <mxGeometry x="295" y="488" width="50" height="30" as="geometry" />
        </mxCell>
        <mxCell id="Kps_Bdfrbykp4vlgLDEr-49" value="&lt;font style=&quot;font-size: 9px;&quot;&gt;SUMINISTRA&lt;/font&gt;" style="rhombus;whiteSpace=wrap;html=1;fillColor=#ffe6cc;strokeColor=#d79b00;" vertex="1" parent="1">
          <mxGeometry x="370" y="430" width="65" height="50" as="geometry" />
        </mxCell>
        <mxCell id="Kps_Bdfrbykp4vlgLDEr-50" value="" style="endArrow=none;html=1;rounded=0;entryX=1;entryY=0.5;entryDx=0;entryDy=0;exitX=0;exitY=0.5;exitDx=0;exitDy=0;" edge="1" parent="1" source="Kps_Bdfrbykp4vlgLDEr-30">
          <mxGeometry width="50" height="50" relative="1" as="geometry">
            <mxPoint x="525" y="454.58" as="sourcePoint" />
            <mxPoint x="435" y="454.58" as="targetPoint" />
          </mxGeometry>
        </mxCell>
        <mxCell id="Kps_Bdfrbykp4vlgLDEr-53" value="1" style="text;html=1;align=center;verticalAlign=middle;resizable=0;points=[];autosize=1;strokeColor=none;fillColor=none;" vertex="1" parent="1">
          <mxGeometry x="207.5" y="290" width="30" height="30" as="geometry" />
        </mxCell>
        <mxCell id="Kps_Bdfrbykp4vlgLDEr-54" value="M" style="text;html=1;align=center;verticalAlign=middle;resizable=0;points=[];autosize=1;strokeColor=none;fillColor=none;" vertex="1" parent="1">
          <mxGeometry x="215" y="400" width="30" height="30" as="geometry" />
        </mxCell>
        <mxCell id="Kps_Bdfrbykp4vlgLDEr-55" value="1" style="text;html=1;align=center;verticalAlign=middle;resizable=0;points=[];autosize=1;strokeColor=none;fillColor=none;" vertex="1" parent="1">
          <mxGeometry x="237.5" y="400" width="30" height="30" as="geometry" />
        </mxCell>
        <mxCell id="Kps_Bdfrbykp4vlgLDEr-56" value="N" style="text;html=1;align=center;verticalAlign=middle;resizable=0;points=[];autosize=1;strokeColor=none;fillColor=none;" vertex="1" parent="1">
          <mxGeometry x="237.5" y="290" width="30" height="30" as="geometry" />
        </mxCell>
        <mxCell id="Kps_Bdfrbykp4vlgLDEr-57" value="N :&lt;div&gt;M&lt;/div&gt;" style="text;html=1;align=center;verticalAlign=middle;resizable=0;points=[];autosize=1;strokeColor=none;fillColor=none;" vertex="1" parent="1">
          <mxGeometry x="265" y="345" width="40" height="40" as="geometry" />
        </mxCell>
        <mxCell id="Kps_Bdfrbykp4vlgLDEr-58" value="1" style="text;html=1;align=center;verticalAlign=middle;resizable=0;points=[];autosize=1;strokeColor=none;fillColor=none;" vertex="1" parent="1">
          <mxGeometry x="280" y="430" width="30" height="30" as="geometry" />
        </mxCell>
        <mxCell id="Kps_Bdfrbykp4vlgLDEr-59" value="1" style="text;html=1;align=center;verticalAlign=middle;resizable=0;points=[];autosize=1;strokeColor=none;fillColor=none;" vertex="1" parent="1">
          <mxGeometry x="500" y="430" width="30" height="30" as="geometry" />
        </mxCell>
        <mxCell id="Kps_Bdfrbykp4vlgLDEr-60" value="1" style="text;html=1;align=center;verticalAlign=middle;resizable=0;points=[];autosize=1;strokeColor=none;fillColor=none;" vertex="1" parent="1">
          <mxGeometry x="500" y="450" width="30" height="30" as="geometry" />
        </mxCell>
        <mxCell id="Kps_Bdfrbykp4vlgLDEr-61" value="M" style="text;html=1;align=center;verticalAlign=middle;resizable=0;points=[];autosize=1;strokeColor=none;fillColor=none;" vertex="1" parent="1">
          <mxGeometry x="280" y="450" width="30" height="30" as="geometry" />
        </mxCell>
        <mxCell id="Kps_Bdfrbykp4vlgLDEr-62" value="precioUnitario" style="ellipse;whiteSpace=wrap;html=1;" vertex="1" parent="1">
          <mxGeometry x="272.5" y="520" width="60" height="40" as="geometry" />
        </mxCell>
        <mxCell id="Kps_Bdfrbykp4vlgLDEr-63" value="" style="endArrow=none;html=1;rounded=0;exitX=0.5;exitY=0;exitDx=0;exitDy=0;entryX=-0.011;entryY=1.033;entryDx=0;entryDy=0;entryPerimeter=0;" edge="1" parent="1" source="Kps_Bdfrbykp4vlgLDEr-62" target="Kps_Bdfrbykp4vlgLDEr-61">
          <mxGeometry width="50" height="50" relative="1" as="geometry">
            <mxPoint x="275" y="460" as="sourcePoint" />
            <mxPoint x="300" y="480" as="targetPoint" />
          </mxGeometry>
        </mxCell>
        <mxCell id="Kps_Bdfrbykp4vlgLDEr-65" value="M : 1" style="text;html=1;align=center;verticalAlign=middle;resizable=0;points=[];autosize=1;strokeColor=none;fillColor=none;" vertex="1" parent="1">
          <mxGeometry x="377.5" y="407" width="50" height="30" as="geometry" />
        </mxCell>
      </root>
    </mxGraphModel>
  </diagram>
</mxfile>
